<?xml version="1.0" encoding="UTF-8"?>
<svg xmlns="http://www.w3.org/2000/svg" xmlns:xlink="http://www.w3.org/1999/xlink" width="50px" height="30px" viewBox="0 0 50 30" version="1.1">
<g id="surface1">
<path style=" stroke:none;fill-rule:nonzero;fill:rgb(100%,100%,100%);fill-opacity:1;" d="M 2.4375 1.222656 L 47.558594 1.222656 C 48.230469 1.222656 48.777344 1.773438 48.777344 2.449219 L 48.777344 27.546875 C 48.777344 28.222656 48.230469 28.769531 47.558594 28.769531 L 2.4375 28.769531 C 1.765625 28.769531 1.21875 28.222656 1.21875 27.546875 L 1.21875 2.449219 C 1.21875 1.773438 1.765625 1.222656 2.4375 1.222656 Z M 2.4375 1.222656 "/>
<path style=" stroke:none;fill-rule:nonzero;fill:rgb(2.745098%,40.784314%,62.352941%);fill-opacity:1;" d="M 19.390625 4.730469 L 19.390625 4.667969 C 19.390625 4.117188 19.832031 3.671875 20.382812 3.671875 L 29.53125 3.671875 C 30.082031 3.671875 30.523438 4.117188 30.523438 4.667969 L 30.523438 4.730469 Z M 19.390625 4.730469 "/>
<path style=" stroke:none;fill-rule:nonzero;fill:rgb(2.745098%,40.784314%,62.352941%);fill-opacity:1;" d="M 30.550781 16.25 L 30.550781 18.433594 C 30.550781 18.984375 30.109375 19.429688 29.558594 19.429688 L 20.410156 19.429688 C 19.863281 19.429688 19.417969 18.984375 19.417969 18.433594 L 19.417969 16.25 Z M 24.984375 16.859375 C 24.445312 16.859375 24.007812 17.296875 24.007812 17.839844 C 24.007812 18.378906 24.445312 18.820312 24.984375 18.820312 C 25.523438 18.820312 25.960938 18.378906 25.960938 17.839844 C 25.960938 17.296875 25.523438 16.859375 24.984375 16.859375 Z M 24.984375 16.859375 "/>
<path style=" stroke:none;fill-rule:nonzero;fill:rgb(2.745098%,40.784314%,62.352941%);fill-opacity:1;" d="M 23.488281 19.652344 C 23.488281 19.953125 23.242188 20.199219 22.941406 20.199219 C 22.640625 20.199219 22.394531 19.953125 22.394531 19.652344 Z M 23.488281 19.652344 "/>
<path style=" stroke:none;fill-rule:nonzero;fill:rgb(2.745098%,40.784314%,62.352941%);fill-opacity:1;" d="M 27.570312 19.652344 C 27.570312 19.953125 27.324219 20.199219 27.023438 20.199219 C 26.71875 20.199219 26.476562 19.953125 26.476562 19.652344 Z M 27.570312 19.652344 "/>
<path style=" stroke:none;fill-rule:nonzero;fill:rgb(2.745098%,40.784314%,62.352941%);fill-opacity:1;" d="M 30.570312 15.90625 L 19.390625 15.90625 L 19.390625 4.988281 L 30.570312 4.988281 Z M 27.441406 13.21875 C 27.441406 13.039062 27.328125 12.894531 27.1875 12.894531 L 22.515625 12.894531 C 22.375 12.894531 22.261719 13.039062 22.261719 13.21875 C 22.261719 13.398438 22.375 13.542969 22.515625 13.542969 L 27.1875 13.542969 C 27.328125 13.542969 27.441406 13.398438 27.441406 13.21875 Z M 25.0625 9.496094 C 24.855469 8.875 25.25 8.570312 25.40625 8.316406 C 26.332031 6.8125 24.761719 6.164062 24.761719 6.164062 C 24.96875 6.414062 24.878906 6.929688 24.261719 7.546875 C 23.082031 8.9375 25.0625 9.496094 25.0625 9.496094 Z M 25.699219 9.097656 C 26.605469 8.472656 25.824219 7.433594 25.824219 7.433594 C 25.90625 7.585938 25.734375 8.226562 25.492188 8.515625 C 25.03125 9.0625 25.183594 9.339844 25.214844 9.464844 C 25.214844 9.464844 25.160156 9.46875 25.699219 9.097656 Z M 25.699219 9.097656 "/>
<path style=" stroke:none;fill-rule:nonzero;fill:rgb(2.745098%,40.784314%,62.352941%);fill-opacity:1;" d="M 5.890625 24.347656 C 6.359375 24.347656 6.816406 24.6875 6.816406 25.253906 C 6.816406 25.882812 6.246094 26.289062 5.402344 26.289062 C 5.160156 26.289062 4.875 26.257812 4.503906 26.257812 C 4.183594 26.257812 3.941406 26.265625 3.707031 26.289062 C 3.664062 26.296875 3.636719 26.117188 3.679688 26.109375 C 3.972656 26.03125 4.199219 25.984375 4.199219 25.609375 L 4.199219 23.359375 C 4.199219 23.035156 3.992188 22.949219 3.773438 22.890625 C 3.734375 22.882812 3.757812 22.714844 3.800781 22.71875 C 4.007812 22.746094 4.25 22.75 4.410156 22.75 C 4.816406 22.75 5.113281 22.71875 5.335938 22.71875 C 5.988281 22.71875 6.523438 22.992188 6.527344 23.550781 C 6.53125 23.960938 6.246094 24.246094 5.890625 24.316406 Z M 5.164062 22.984375 C 4.894531 22.984375 4.804688 23.074219 4.804688 23.359375 L 4.804688 24.261719 L 5.324219 24.261719 C 5.6875 24.261719 5.902344 24.078125 5.902344 23.6875 C 5.902344 23.207031 5.578125 22.984375 5.164062 22.984375 Z M 5.386719 26.027344 C 5.832031 26.027344 6.164062 25.894531 6.164062 25.367188 C 6.164062 24.808594 5.796875 24.515625 5.324219 24.515625 L 4.804688 24.515625 L 4.804688 25.609375 C 4.804688 25.890625 4.945312 26.027344 5.386719 26.027344 Z M 9.195312 26.359375 C 8.144531 26.359375 7.371094 25.578125 7.371094 24.523438 C 7.371094 23.5 8.097656 22.648438 9.207031 22.648438 C 10.261719 22.648438 11.03125 23.425781 11.03125 24.480469 C 11.03125 25.507812 10.308594 26.359375 9.195312 26.359375 Z M 9.394531 26.015625 C 9.835938 26.015625 10.429688 25.722656 10.429688 24.761719 C 10.429688 23.738281 9.734375 22.992188 9.007812 22.992188 C 8.5625 22.992188 7.976562 23.289062 7.976562 24.242188 C 7.976562 25.277344 8.671875 26.015625 9.394531 26.015625 Z M 11.558594 26.28125 C 11.519531 26.28125 11.488281 26.113281 11.53125 26.109375 C 11.789062 26.070312 11.949219 25.96875 11.949219 25.652344 L 11.949219 23.359375 C 11.949219 23.039062 11.789062 22.9375 11.53125 22.902344 C 11.488281 22.898438 11.519531 22.730469 11.558594 22.730469 L 12.945312 22.730469 C 12.984375 22.730469 13.015625 22.898438 12.976562 22.902344 C 12.757812 22.933594 12.554688 23.003906 12.554688 23.359375 L 12.554688 25.652344 C 12.554688 26.007812 12.757812 26.078125 12.976562 26.109375 C 13.015625 26.113281 12.984375 26.28125 12.945312 26.28125 Z M 13.375 26.289062 C 13.324219 26.296875 13.304688 26.117188 13.34375 26.109375 C 13.636719 26.03125 13.863281 25.984375 13.863281 25.609375 L 13.863281 23.359375 C 13.863281 23.003906 13.65625 22.933594 13.4375 22.902344 C 13.398438 22.898438 13.429688 22.730469 13.464844 22.730469 L 14.859375 22.730469 C 14.894531 22.730469 14.917969 22.898438 14.882812 22.902344 C 14.671875 22.925781 14.46875 23.003906 14.46875 23.359375 L 14.46875 25.609375 C 14.46875 25.898438 14.589844 26.007812 15.011719 26.007812 C 15.773438 26.007812 16.078125 25.65625 16.199219 25.464844 C 16.234375 25.40625 16.371094 25.433594 16.371094 25.519531 C 16.371094 25.777344 16.152344 26.289062 15.835938 26.289062 C 15.550781 26.273438 15.273438 26.257812 14.847656 26.257812 C 14.382812 26.257812 13.832031 26.246094 13.375 26.289062 Z M 16.699219 26.289062 C 16.648438 26.296875 16.628906 26.117188 16.667969 26.109375 C 16.960938 26.03125 17.1875 25.984375 17.1875 25.609375 L 17.1875 23.359375 C 17.1875 23.035156 16.980469 22.949219 16.765625 22.890625 C 16.722656 22.882812 16.75 22.714844 16.789062 22.71875 C 17.15625 22.761719 17.792969 22.75 18.101562 22.75 C 18.5625 22.75 18.894531 22.730469 19.308594 22.71875 C 19.429688 22.71875 19.429688 22.800781 19.40625 22.917969 L 19.285156 23.398438 C 19.269531 23.46875 19.144531 23.46875 19.125 23.398438 C 19.046875 23.152344 18.894531 23.007812 18.265625 23.007812 C 17.910156 23.007812 17.792969 23.101562 17.792969 23.363281 L 17.792969 24.191406 C 17.792969 24.320312 17.859375 24.347656 17.960938 24.347656 L 18.070312 24.347656 C 18.480469 24.347656 18.835938 24.308594 19.042969 24.121094 C 19.09375 24.074219 19.203125 24.082031 19.160156 24.183594 L 18.871094 24.824219 C 18.832031 24.914062 18.753906 24.90625 18.699219 24.828125 C 18.582031 24.667969 18.324219 24.601562 18.03125 24.601562 L 17.960938 24.601562 C 17.859375 24.601562 17.792969 24.625 17.792969 24.757812 L 17.792969 25.609375 C 17.792969 25.898438 17.914062 26.007812 18.335938 26.007812 C 19.097656 26.007812 19.402344 25.65625 19.523438 25.464844 C 19.558594 25.40625 19.695312 25.433594 19.695312 25.519531 C 19.695312 25.777344 19.476562 26.289062 19.160156 26.289062 C 18.875 26.273438 18.597656 26.257812 18.171875 26.257812 C 17.707031 26.257812 17.15625 26.246094 16.699219 26.289062 Z M 23.8125 26.152344 C 23.851562 26.152344 23.84375 26.289062 23.8125 26.300781 C 23.492188 26.40625 23.054688 26.390625 22.75 26 L 21.972656 24.996094 C 21.753906 24.710938 21.496094 24.671875 21.144531 24.667969 L 21.144531 25.652344 C 21.144531 26.007812 21.386719 26.066406 21.710938 26.109375 C 21.746094 26.113281 21.71875 26.28125 21.679688 26.28125 L 20.148438 26.28125 C 20.109375 26.28125 20.078125 26.113281 20.117188 26.109375 C 20.375 26.070312 20.539062 25.96875 20.539062 25.652344 L 20.539062 23.390625 C 20.539062 23.054688 20.359375 22.957031 20.117188 22.890625 C 20.078125 22.882812 20.101562 22.714844 20.148438 22.71875 C 20.347656 22.746094 20.566406 22.75 20.730469 22.75 C 21.105469 22.75 21.453125 22.71875 21.695312 22.71875 C 22.457031 22.71875 22.96875 23.035156 22.96875 23.65625 C 22.96875 24.246094 22.492188 24.535156 22.070312 24.5625 L 22.070312 24.585938 C 22.269531 24.585938 22.417969 24.671875 22.640625 24.949219 L 23.390625 25.898438 C 23.546875 26.097656 23.699219 26.152344 23.8125 26.152344 Z M 21.289062 24.433594 C 22.042969 24.433594 22.332031 24.300781 22.332031 23.792969 C 22.332031 23.253906 21.988281 22.984375 21.539062 22.984375 C 21.238281 22.984375 21.144531 23.105469 21.144531 23.390625 L 21.144531 24.433594 Z M 25.207031 26.359375 C 24.792969 26.359375 24.160156 26.179688 24.222656 25.957031 L 24.269531 25.769531 C 24.414062 25.234375 24.578125 26.015625 25.414062 26.015625 C 25.835938 26.015625 26.042969 25.808594 26.042969 25.515625 C 26.042969 25.277344 25.894531 25.175781 25.535156 24.949219 L 25.042969 24.640625 C 24.5 24.296875 24.277344 24.082031 24.277344 23.703125 C 24.277344 23.078125 24.882812 22.648438 25.507812 22.648438 C 25.894531 22.648438 26.382812 22.816406 26.328125 22.988281 L 26.265625 23.179688 C 26.109375 23.671875 25.984375 22.992188 25.292969 22.992188 C 24.933594 22.992188 24.746094 23.175781 24.746094 23.445312 C 24.746094 23.671875 24.882812 23.800781 25.222656 24.007812 L 25.75 24.335938 C 26.285156 24.671875 26.503906 24.902344 26.503906 25.265625 C 26.503906 25.898438 25.882812 26.359375 25.207031 26.359375 Z M 31.761719 26.109375 C 31.804688 26.113281 31.773438 26.28125 31.734375 26.28125 L 30.347656 26.28125 C 30.308594 26.28125 30.277344 26.113281 30.320312 26.109375 C 30.578125 26.070312 30.738281 25.96875 30.738281 25.652344 L 30.738281 24.777344 C 30.710938 24.691406 30.605469 24.691406 30.511719 24.691406 L 29.21875 24.691406 C 29.121094 24.691406 29.015625 24.691406 28.988281 24.777344 L 28.988281 25.652344 C 28.988281 26.007812 29.191406 26.078125 29.410156 26.109375 C 29.449219 26.113281 29.417969 26.28125 29.378906 26.28125 L 27.996094 26.28125 C 27.953125 26.28125 27.925781 26.113281 27.964844 26.109375 C 28.222656 26.070312 28.382812 25.96875 28.382812 25.652344 L 28.382812 23.359375 C 28.382812 23.039062 28.222656 22.9375 27.964844 22.902344 C 27.925781 22.898438 27.953125 22.730469 27.996094 22.730469 L 29.378906 22.730469 C 29.417969 22.730469 29.449219 22.898438 29.410156 22.902344 C 29.191406 22.933594 28.988281 23.003906 28.988281 23.359375 L 28.988281 24.285156 C 29.015625 24.371094 29.121094 24.371094 29.21875 24.371094 L 30.511719 24.371094 C 30.605469 24.371094 30.710938 24.371094 30.738281 24.285156 L 30.738281 23.359375 C 30.738281 23.039062 30.578125 22.9375 30.320312 22.902344 C 30.277344 22.898438 30.308594 22.730469 30.347656 22.730469 L 31.734375 22.730469 C 31.773438 22.730469 31.804688 22.898438 31.761719 22.902344 C 31.546875 22.933594 31.34375 23.003906 31.34375 23.359375 L 31.34375 25.652344 C 31.34375 26.007812 31.546875 26.078125 31.761719 26.109375 Z M 34.085938 26.359375 C 33.035156 26.359375 32.265625 25.578125 32.265625 24.523438 C 32.265625 23.5 32.992188 22.648438 34.097656 22.648438 C 35.152344 22.648438 35.921875 23.425781 35.921875 24.480469 C 35.921875 25.507812 35.199219 26.359375 34.085938 26.359375 Z M 34.285156 26.015625 C 34.730469 26.015625 35.320312 25.722656 35.320312 24.761719 C 35.320312 23.738281 34.628906 22.992188 33.902344 22.992188 C 33.457031 22.992188 32.871094 23.289062 32.871094 24.242188 C 32.871094 25.277344 33.5625 26.015625 34.285156 26.015625 Z M 38.316406 26.359375 C 37.605469 26.359375 36.804688 25.980469 36.804688 24.949219 L 36.804688 23.359375 C 36.804688 23.039062 36.644531 22.933594 36.398438 22.902344 C 36.355469 22.898438 36.386719 22.730469 36.425781 22.730469 L 37.804688 22.730469 C 37.847656 22.730469 37.875 22.898438 37.835938 22.902344 C 37.632812 22.925781 37.433594 23.003906 37.433594 23.359375 L 37.433594 24.976562 C 37.433594 25.6875 37.839844 26.015625 38.378906 26.015625 C 38.925781 26.015625 39.367188 25.6875 39.367188 24.976562 L 39.367188 23.359375 C 39.367188 23.027344 39.179688 22.9375 38.933594 22.902344 C 38.898438 22.898438 38.921875 22.730469 38.964844 22.730469 L 40.101562 22.730469 C 40.136719 22.730469 40.164062 22.898438 40.125 22.902344 C 39.921875 22.925781 39.722656 23.003906 39.722656 23.359375 L 39.722656 24.945312 C 39.722656 25.878906 39.121094 26.359375 38.316406 26.359375 Z M 41.617188 26.359375 C 41.199219 26.359375 40.570312 26.179688 40.628906 25.957031 L 40.679688 25.769531 C 40.820312 25.234375 40.988281 26.015625 41.824219 26.015625 C 42.246094 26.015625 42.453125 25.808594 42.453125 25.515625 C 42.453125 25.277344 42.300781 25.175781 41.945312 24.949219 L 41.453125 24.640625 C 40.90625 24.296875 40.6875 24.082031 40.6875 23.703125 C 40.6875 23.078125 41.292969 22.648438 41.917969 22.648438 C 42.300781 22.648438 42.792969 22.816406 42.738281 22.988281 L 42.675781 23.179688 C 42.519531 23.671875 42.394531 22.992188 41.703125 22.992188 C 41.34375 22.992188 41.15625 23.175781 41.15625 23.445312 C 41.15625 23.671875 41.292969 23.800781 41.628906 24.007812 L 42.160156 24.335938 C 42.695312 24.671875 42.914062 24.902344 42.914062 25.265625 C 42.914062 25.898438 42.292969 26.359375 41.617188 26.359375 Z M 43.34375 26.289062 C 43.292969 26.296875 43.273438 26.117188 43.3125 26.109375 C 43.605469 26.03125 43.832031 25.984375 43.832031 25.609375 L 43.832031 23.359375 C 43.832031 23.035156 43.625 22.949219 43.410156 22.890625 C 43.367188 22.882812 43.394531 22.714844 43.433594 22.71875 C 43.804688 22.761719 44.441406 22.75 44.746094 22.75 C 45.207031 22.75 45.539062 22.730469 45.957031 22.71875 C 46.078125 22.71875 46.078125 22.800781 46.050781 22.917969 L 45.929688 23.398438 C 45.914062 23.46875 45.789062 23.46875 45.769531 23.398438 C 45.691406 23.152344 45.539062 23.007812 44.910156 23.007812 C 44.554688 23.007812 44.441406 23.101562 44.441406 23.363281 L 44.441406 24.191406 C 44.441406 24.320312 44.503906 24.347656 44.605469 24.347656 L 44.71875 24.347656 C 45.125 24.347656 45.480469 24.308594 45.6875 24.121094 C 45.738281 24.074219 45.847656 24.082031 45.804688 24.183594 L 45.515625 24.824219 C 45.476562 24.914062 45.398438 24.90625 45.34375 24.828125 C 45.226562 24.667969 44.96875 24.601562 44.675781 24.601562 L 44.605469 24.601562 C 44.503906 24.601562 44.441406 24.625 44.441406 24.757812 L 44.441406 25.609375 C 44.441406 25.898438 44.5625 26.007812 44.980469 26.007812 C 45.742188 26.007812 46.046875 25.65625 46.167969 25.464844 C 46.203125 25.40625 46.339844 25.433594 46.339844 25.519531 C 46.339844 25.777344 46.121094 26.289062 45.804688 26.289062 C 45.519531 26.273438 45.242188 26.257812 44.820312 26.257812 C 44.355469 26.257812 43.804688 26.246094 43.34375 26.289062 Z M 43.34375 26.289062 "/>
</g>
</svg>
